# File created by Blade
# Date/Time:  Tue Jan 27 17:16:36 2015
#---------------------------------------------------------
:version 1.10
:name HOM
:units
  mass 1.0
  length 1.000000
  angle deg
:documentation
     Acclaim Skeleton File
:root
   axis xyz
   order TX TY TZ RX RY RZ
   position 0.000000 0.000000 0.000000
   orientation 0 0 0
:bonedata
   begin
      id 1
      name Spine_dum
      direction 0.000000 1.000000 0.000000
      length 7.539951
      axis 0.0 0.0 0.0 xyz
   end
   begin
      id 2
      name LeftUpLeg_dum
      direction 1.000000 0.000000 0.000000
      length 3.345476
      axis 0.0 0.0 0.0 xyz
   end
   begin
      id 3
      name RightUpLeg_dum
      direction -1.000000 0.000000 0.000000
      length 3.345476
      axis 0.0 0.0 0.0 xyz
   end
   begin
      id 4
      name Spine
      direction 0.000000 1.000000 0.000000
      length 0.000000
      axis 0.0 0.0 0.0 xyz
      dof rx ry rz
   end
   begin
      id 5
      name Spine_dum1
      direction 0.000000 1.000000 0.000000
      length 15.093809
      axis 0.0 0.0 0.0 xyz
   end
   begin
      id 6
      name Spine_dum2
      direction 0.000000 1.000000 0.000000
      length 9.738928
      axis 0.0 0.0 0.0 xyz
   end
   begin
      id 7
      name Spine_dum3
      direction 0.000000 1.000000 0.000000
      length 9.738928
      axis 0.0 0.0 0.0 xyz
   end
   begin
      id 8
      name Head
      direction 0.000000 1.000000 0.000000
      length 4.527550
      axis 0.0 0.0 0.0 xyz
      dof rx ry rz
   end
   begin
      id 9
      name LeftShoulder
      direction 1.000000 0.000000 0.000000
      length 7.084015
      axis 0.0 0.0 -90.0 xyz
      dof rx ry rz
   end
   begin
      id 10
      name LeftArm
      direction 1.000000 0.000000 0.000000
      length 10.259319
      axis 0.0 0.0 -90.0 xyz
      dof rx ry rz
   end
   begin
      id 11
      name LeftForeArm
      direction 1.000000 0.000000 0.000000
      length 9.896984
      axis 0.0 0.0 -90.0 xyz
      dof ry rz rx
   end
   begin
      id 12
      name LeftHand
      direction 0.000000 0.000000 0.000000
      length 0.000000
      axis 0.0 0.0 -90.0 xyz
      dof rx ry rz
   end
   begin
      id 13
      name LeftHand_dum1
      direction 0.000000 0.000000 0.000000
      length 0.000000
      axis 0.0 0.0 -90.0 xyz
   end
   begin
      id 14
      name LeftHand_dum2
      direction 1.000000 0.000000 0.000000
      length 3.937000
      axis 0.0 0.0 -90.0 xyz
   end
   begin
      id 15
      name LeftHandThumb1
      direction 0.000000 0.000000 1.000000
      length 3.937000
      axis 0.0 0.0 -90.0 xyz
      dof rx rz ry
   end
   begin
      id 16
      name RightShoulder
      direction -1.000000 0.000000 0.000000
      length 7.084015
      axis 0.0 0.0 90.0 xyz
      dof rx ry rz
   end
   begin
      id 17
      name RightArm
      direction -1.000000 0.000000 0.000000
      length 10.259319
      axis 0.0 0.0 90.0 xyz
      dof rx ry rz
   end
   begin
      id 18
      name RightForeArm
      direction -1.000000 0.000000 0.000000
      length 9.896984
      axis 0.0 0.0 90.0 xyz
      dof ry rz rx
   end
   begin
      id 19
      name RightHand
      direction 0.000000 0.000000 0.000000
      length 0.000000
      axis 0.0 0.0 90.0 xyz
      dof rx ry rz
   end
   begin
      id 20
      name RightHand_dum1
      direction 0.000000 0.000000 0.000000
      length 0.000000
      axis 0.0 0.0 90.0 xyz
   end
   begin
      id 21
      name RightHand_dum2
      direction -1.000000 0.000000 0.000000
      length 3.937000
      axis 0.0 0.0 90.0 xyz
   end
   begin
      id 22
      name RightHandThumb1
      direction 0.000000 0.000000 1.000000
      length 3.937000
      axis 0.0 0.0 90.0 xyz
      dof rx rz ry
   end
   begin
      id 23
      name LeftUpLeg
      direction 0.000000 -1.000000 0.000000
      length 19.114733
      axis 0.0 0.0 0.0 xyz
      dof rx ry rz
   end
   begin
      id 24
      name LeftLeg
      direction 0.000000 -1.000000 0.000000
      length 16.045604
      axis 0.0 0.0 0.0 xyz
      dof rx ry rz
   end
   begin
      id 25
      name LeftFoot
      direction 0.000000 -0.258819 0.965926
      length 5.543155
      axis 15.0 0.0 0.0 xyz
      dof rx ry rz
   end
   begin
      id 26
      name LeftToeBase
      direction 0.000000 0.000000 1.000000
      length 2.952750
      axis 0.0 0.0 0.0 xyz
      dof rx ry rz
   end
   begin
      id 27
      name RightUpLeg
      direction 0.000000 -1.000000 0.000000
      length 19.114733
      axis 0.0 0.0 0.0 xyz
      dof rx ry rz
   end
   begin
      id 28
      name RightLeg
      direction 0.000000 -1.000000 0.000000
      length 16.045604
      axis 0.0 0.0 0.0 xyz
      dof rx ry rz
   end
   begin
      id 29
      name RightFoot
      direction 0.000000 -0.258819 0.965926
      length 5.543155
      axis 15.0 0.0 0.0 xyz
      dof rx ry rz
   end
   begin
      id 30
      name RightToeBase
      direction 0.000000 0.000000 1.000000
      length 2.952750
      axis 0.0 0.0 0.0 xyz
      dof rx ry rz
   end
:hierarchy
   begin
      root Spine_dum LeftUpLeg_dum RightUpLeg_dum
      Spine_dum Spine
      LeftUpLeg_dum LeftUpLeg
      RightUpLeg_dum RightUpLeg
      Spine Spine_dum1 Spine_dum2 Spine_dum3
      Spine_dum1 Head
      Spine_dum2 LeftShoulder
      Spine_dum3 RightShoulder
      LeftShoulder LeftArm
      LeftArm LeftForeArm
      LeftForeArm LeftHand
      LeftHand LeftHand_dum1 LeftHand_dum2
      LeftHand_dum1 LeftHandThumb1
      RightShoulder RightArm
      RightArm RightForeArm
      RightForeArm RightHand
      RightHand RightHand_dum1 RightHand_dum2
      RightHand_dum1 RightHandThumb1
      LeftUpLeg LeftLeg
      LeftLeg LeftFoot
      LeftFoot LeftToeBase
      RightUpLeg RightLeg
      RightLeg RightFoot
      RightFoot RightToeBase
   end

# File created by Blade
# Date/Time:  Tue Jan 27 17:16:27 2015
# Frame Rate: 120.000 fps
#------------------------------------------------------
:FULLY-SPECIFIED
:DEGREES
852
root -2.656285 36.571648 0.174773 -3.009998 -39.467060 0.856613
Spine 6.755817 19.655882 2.139039
Head -1.981231 -1.525754 1.088735
LeftShoulder -8.607110 -9.089286 10.382731
LeftArm -22.159456 -28.248975 -25.536354
LeftForeArm 2.450973 -0.000000 62.484561
LeftHand -14.620837 -0.000000 39.617799
LeftHandThumb1 -26.253704 0.000000 33.147579
RightShoulder -3.656648 -19.133184 0.896703
RightArm 18.380536 -15.350575 59.954705
RightForeArm -175.028630 -0.000000 25.353073
RightHand 1.041463 -0.000000 6.002082
RightHandThumb1 -24.326973 -0.000000 -32.862282
LeftUpLeg -67.049999 8.186953 -0.907825
LeftLeg 82.909867 -0.000000 -0.000000
LeftFoot -0.393743 -6.120336 -23.711259
LeftToeBase 14.714700 -0.000000 -0.000000
RightUpLeg -7.344113 -5.575057 4.845231
RightLeg 22.757883 -0.000000 -0.000000
RightFoot -16.315110 9.954308 0.451954
RightToeBase 1.212676 -0.000000 -0.000000
853
root -2.658239 36.570297 0.168692 -2.912192 -38.979996 0.837308
Spine 6.728403 19.570198 2.101784
Head -2.106774 -1.584263 1.185657
LeftShoulder -8.590035 -9.152961 10.393695
LeftArm -21.578025 -28.235488 -25.887649
LeftForeArm 2.427320 -0.000000 62.341320
LeftHand -14.537019 -0.000000 40.017803
LeftHandThumb1 -26.253704 0.000000 33.147579
RightShoulder -3.678640 -19.130742 0.928703
RightArm 18.149306 -15.301908 60.061810
RightForeArm -175.056094 -0.000000 25.341955
RightHand 1.026222 -0.000000 5.966815
RightHandThumb1 -24.326973 -0.000000 -32.862282
LeftUpLeg -66.949600 8.206281 -0.947188
LeftLeg 82.970853 -0.000000 -0.000000
LeftFoot -0.409746 -6.025605 -23.661743
LeftToeBase 14.486163 -0.000000 -0.000000
RightUpLeg -7.425687 -5.593288 4.897308
RightLeg 22.742565 -0.000000 -0.000000
RightFoot -16.341396 9.419244 0.362017
RightToeBase 0.786229 -0.000000 -0.000000
854
root -2.659101 36.569970 0.161896 -2.783021 -38.472843 0.840666
Spine 6.640940 19.504448 2.015754
Head -2.244601 -1.687883 1.279382
LeftShoulder -8.557608 -9.241074 10.429283
LeftArm -20.986379 -28.176467 -26.277511
LeftForeArm 2.405946 -0.000000 62.227634
LeftHand -14.428416 -0.000000 40.477327
LeftHandThumb1 -26.253704 0.000000 33.147579
RightShoulder -3.701144 -19.220247 1.005256
RightArm 17.951989 -15.189904 60.143210
RightForeArm -175.056800 -0.000000 25.370219
RightHand 0.999067 0.000000 5.819671
RightHandThumb1 -24.326973 -0.000000 -32.862282
LeftUpLeg -66.894888 8.219229 -1.009907
LeftLeg 83.017051 -0.000000 -0.000000
LeftFoot -0.453075 -5.939785 -23.699680
LeftToeBase 14.628908 -0.000000 -0.000000
RightUpLeg -7.560680 -5.587843 4.936739
RightLeg 22.735542 -0.000000 -0.000000
RightFoot -16.369102 8.898886 0.348479
RightToeBase 0.677167 -0.000000 -0.000000
855
root -2.666410 36.570234 0.156169 -2.708458 -37.945297 0.853004
Spine 6.616118 19.444046 1.920603
Head -2.368842 -1.750204 1.365865
LeftShoulder -8.481353 -9.370406 10.491303
LeftArm -20.446098 -28.087953 -26.662026
LeftForeArm 2.463048 -0.000000 62.161228
LeftHand -14.407169 0.000000 40.921535
LeftHandThumb1 -26.253704 0.000000 33.147579
RightShoulder -3.782518 -19.300032 1.100415
RightArm 17.818245 -15.142188 60.202148
RightForeArm -175.040447 -0.000000 25.368427
RightHand 0.949295 -0.000000 6.013179
RightHandThumb1 -24.326973 -0.000000 -32.862282
LeftUpLeg -66.778668 8.222798 -1.034546
LeftLeg 83.090251 -0.000000 -0.000000
LeftFoot -0.468483 -5.848616 -23.682720
LeftToeBase 14.526583 -0.000000 -0.000000
RightUpLeg -7.652248 -5.439601 4.971529
RightLeg 22.762273 -0.000000 -0.000000
RightFoot -16.415434 8.257922 0.430187
RightToeBase 0.661455 -0.000000 -0.000000
856
root -2.671360 36.570798 0.150364 -2.620071 -37.405315 0.866907
Spine 6.561499 19.380885 1.820576
Head -2.446590 -1.840230 1.483355
LeftShoulder -8.333730 -9.508468 10.576875
LeftArm -20.025640 -27.993613 -27.029638
LeftForeArm 2.610626 -0.000000 62.151070
LeftHand -14.484376 -0.000000 41.318526
LeftHandThumb1 -26.253704 0.000000 33.147579
RightShoulder -3.837245 -19.271215 1.178372
RightArm 17.581141 -15.169789 60.267754
RightForeArm -175.045929 0.000000 25.348946
RightHand 0.961492 0.000000 5.957374
RightHandThumb1 -24.326973 -0.000000 -32.862282
LeftUpLeg -66.677851 8.223661 -1.051067
LeftLeg 83.161668 -0.000000 -0.000000
LeftFoot -0.469752 -5.769502 -23.741392
LeftToeBase 14.506835 -0.000000 -0.000000
RightUpLeg -7.732989 -5.441560 4.998932
RightLeg 22.726208 -0.000000 -0.000000
RightFoot -16.421153 7.762498 0.510692
RightToeBase 0.426141 -0.000000 -0.000000
